HIERARCHY
ROOT Hips
{
	OFFSET 0.000000 0.000000 0.000000 
	CHANNELS 6 Xposition Yposition Zposition Zrotation Xrotation Yrotation
MOTION
Frames: 106
Frame Time: 0.016667
0.740575 95.870224 3.717893 0.000000 0.000000 0.000000 
0.740575 95.870224 3.717893 0.000000 0.000000 0.000000 
0.740575 95.870224 3.717893 0.000000 0.000000 0.000000 
0.740575 95.870224 3.717893 0.000000 0.000000 0.000000 
0.740575 95.870224 3.717893 0.000000 0.000000 0.000000 
0.740575 95.870224 3.717893 0.000000 0.000000 0.000000 
0.740575 95.870224 3.717893 0.000000 0.000000 0.000000 
0.740575 95.870224 3.717893 0.000000 0.000000 0.000000 
0.740575 95.870224 3.717893 0.000000 0.000000 0.000000 
0.740575 95.870224 3.717893 0.000000 0.000000 0.000000 
0.740575 95.870224 3.717893 0.000000 0.000000 0.000000 
0.740575 95.870224 3.717893 0.000000 0.000000 0.000000 
0.740575 95.870224 3.717893 0.000000 0.000000 0.000000 
0.740575 95.870224 3.717893 0.000000 0.000000 0.000000 
0.740575 95.870224 3.717893 0.000000 0.000000 0.000000 
0.740575 95.870224 3.717893 0.000000 0.000000 0.000000 
0.740575 95.870224 3.717893 0.000000 0.000000 0.000000 
0.740575 95.870224 3.717893 0.000000 0.000000 0.000000 
0.740575 95.870224 3.717893 0.000000 0.000000 0.000000 
0.740575 95.870224 3.717893 0.000000 0.000000 0.000000 
0.740575 95.870224 3.717893 0.000000 0.000000 0.000000 
0.740575 95.870224 3.717893 0.000000 0.000000 0.000000 
0.740575 95.870224 3.717893 0.000000 0.000000 0.000000 
0.740575 95.870224 3.717893 0.000000 0.000000 0.000000 
0.740575 95.870224 3.717893 0.000000 0.000000 0.000000 
0.740575 95.870224 3.717893 0.000000 0.000000 0.000000 
0.740575 95.870224 3.717893 0.000000 0.000000 0.000000 
0.740575 95.870224 3.717893 0.000000 0.000000 0.000000 
0.740575 95.870224 3.717893 0.000000 0.000000 0.000000 
0.740575 95.870224 3.717893 0.000000 0.000000 0.000000 
0.740575 95.870224 3.717893 0.000000 0.000000 0.000000 
0.740575 95.870224 3.717893 0.000000 0.000000 0.000000 
0.740575 95.870224 3.717893 0.000000 0.000000 0.000000 
0.740575 95.870224 3.717893 0.000000 0.000000 0.000000 
0.740575 95.870224 3.717893 0.000000 0.000000 0.000000 
0.740575 95.870224 3.717893 0.000000 0.000000 0.000000 
0.740575 95.870224 3.717893 0.000000 0.000000 0.000000 
0.740575 95.870224 3.717893 0.000000 0.000000 0.000000 
0.740575 95.870224 3.717893 0.000000 0.000000 0.000000 
0.740575 95.870224 3.717893 0.000000 0.000000 0.000000 
0.740575 95.870224 3.717893 0.000000 0.000000 0.000000 
0.740575 95.870224 3.717893 0.000000 0.000000 0.000000 
0.740575 95.870224 3.717893 0.000000 0.000000 0.000000 
0.740575 95.870224 3.717893 0.000000 0.000000 0.000000 
0.740575 95.870224 3.717893 0.000000 0.000000 0.000000 
0.740575 95.870224 3.717893 0.000000 0.000000 0.000000 
0.740575 95.870224 3.717893 0.000000 0.000000 0.000000 
0.740575 95.870224 3.717893 0.000000 0.000000 0.000000 
0.740575 95.870224 3.717893 0.000000 0.000000 0.000000 
0.740575 95.870224 3.717893 0.000000 0.000000 0.000000 
0.740575 95.870224 3.717893 0.000000 0.000000 0.000000 
0.740575 95.870224 3.717893 0.000000 0.000000 0.000000 
0.740575 95.870224 3.717893 0.000000 0.000000 0.000000 
0.740575 95.870224 3.717893 0.000000 0.000000 0.000000 
0.740575 95.870224 3.717893 0.000000 0.000000 0.000000 
0.740575 95.870224 3.717893 0.000000 0.000000 0.000000 
0.749132 95.873627 3.731711 0.000000 0.000000 0.000000 
0.827636 95.880051 3.785849 0.000000 0.000000 0.000000 
0.827636 95.880051 3.785849 0.000000 0.000000 0.000000 
0.827636 95.880051 3.785849 0.000000 0.000000 0.000000 
0.809301 95.936142 3.747747 0.000000 0.000000 0.000000 
0.788797 95.853615 3.746423 0.000000 0.000000 0.000000 
0.769614 95.853645 3.736122 0.000000 0.000000 0.000000 
0.733565 95.853722 3.766615 0.000000 0.000000 0.000000 
0.683882 95.909012 3.848949 0.000000 0.000000 0.000000 
0.669487 95.861008 3.868920 0.000000 0.000000 0.000000 
0.607233 96.343979 3.894805 0.000000 0.000000 0.000000 
0.592985 95.892059 3.914571 0.000000 0.000000 0.000000 
0.586998 95.892059 3.922876 0.000000 0.000000 0.000000 
0.397264 96.589668 3.949411 0.000000 0.000000 0.000000 
0.339213 96.358322 4.024118 0.000000 0.000000 0.000000 
0.333226 95.879341 4.032423 0.000000 0.000000 0.000000 
0.331181 95.879341 4.035260 0.000000 0.000000 0.000000 
0.207309 96.019096 4.071906 0.000000 0.000000 0.000000 
0.205642 95.908119 4.074218 0.000000 0.000000 0.000000 
0.201880 95.902916 4.025215 0.000000 0.000000 0.000000 
0.201880 95.902916 4.025215 0.000000 0.000000 0.000000 
0.001527 95.797607 3.521926 0.000000 0.000000 0.000000 
-0.243856 95.868362 3.232100 0.000000 0.000000 0.000000 
-0.456038 95.576248 2.616196 0.000000 0.000000 0.000000 
-0.739865 95.576248 2.193754 0.000000 0.000000 0.000000 
-0.795831 95.576248 2.110455 0.000000 0.000000 0.000000 
-0.533567 95.491409 2.245068 0.000000 0.000000 0.000000 
-0.378752 95.769455 2.206609 0.000000 0.000000 0.000000 
-0.235140 95.800957 2.075348 0.000000 0.000000 0.000000 
-0.112635 95.595436 1.953581 0.000000 0.000000 0.000000 
-0.025505 95.556465 1.866975 0.000000 0.000000 0.000000 
0.079576 95.684479 1.731499 0.000000 0.000000 0.000000 
0.152857 95.698540 1.687192 0.000000 0.000000 0.000000 
0.167851 95.644615 1.685561 0.000000 0.000000 0.000000 
0.167851 95.644615 1.685561 0.000000 0.000000 0.000000 
0.074413 95.882355 1.700255 0.000000 0.000000 0.000000 
0.032509 95.650414 1.706146 0.000000 0.000000 0.000000 
0.016380 95.638046 1.703310 0.000000 0.000000 0.000000 
0.039041 95.638046 1.706618 0.000000 0.000000 0.000000 
0.039041 95.638046 1.706617 0.000000 0.000000 0.000000 
-0.034961 95.776535 1.705271 0.000000 0.000000 0.000000 
-0.054873 95.721939 1.705476 0.000000 0.000000 0.000000 
-0.030440 95.746414 1.775434 0.000000 0.000000 0.000000 
-0.030440 95.746414 1.775434 0.000000 0.000000 0.000000 
-0.030440 95.746414 1.775434 0.000000 0.000000 0.000000 
-0.140313 95.724342 1.573761 0.000000 0.000000 0.000000 
-0.183272 95.724342 1.392023 0.000000 0.000000 0.000000 
-0.183272 95.724342 1.392023 0.000000 0.000000 0.000000 
-0.252382 95.639153 1.094111 0.000000 0.000000 0.000000 
-0.240106 95.639153 0.923988 0.000000 0.000000 0.000000 
